<svg xmlns="http://www.w3.org/2000/svg" viewBox="0 0 170 48" fill="none" role="img" aria-label="Akunio Logo Horizontal">
  <defs>
    <linearGradient id="h-terra-gradient" x1="4" y1="4" x2="44" y2="44" gradientUnits="userSpaceOnUse">
      <stop offset="0%" stop-color="#b66035"/>
      <stop offset="100%" stop-color="#8a3c1a"/>
    </linearGradient>
    <linearGradient id="h-stroke-grad" x1="12" y1="8" x2="36" y2="40" gradientUnits="userSpaceOnUse">
      <stop offset="0%" stop-color="#ffffff"/>
      <stop offset="100%" stop-color="#fdf8f0"/>
    </linearGradient>
    <filter id="h-drop-shadow" x="0" y="2" width="48" height="48" filterUnits="userSpaceOnUse" color-interpolation-filters="sRGB">
      <feDropShadow dx="0" dy="1.8" stdDeviation="1.8" flood-color="#240c03" flood-opacity="0.3"/>
    </filter>
  </defs>

  <!-- Mark Icon: Geometric A Accounting Book Ledger -->
  <g transform="translate(3, 3)">
    <rect x="0" y="0" width="42" height="42" rx="12" fill="url(#h-terra-gradient)"/>
    <rect x="0.5" y="0.5" width="41" height="41" rx="11.5" stroke="rgba(255,255,255,0.22)" stroke-width="1"/>
    <g transform="translate(-3, -3)" filter="url(#h-drop-shadow)">
      <path d="M24 8.5L9.5 35.5" stroke="url(#h-stroke-grad)" stroke-width="3.6" stroke-linecap="round" stroke-linejoin="round"/>
      <path d="M24 8.5L38.5 35.5" stroke="url(#h-stroke-grad)" stroke-width="3.6" stroke-linecap="round" stroke-linejoin="round"/>
      <path d="M24 10.5V36" stroke="url(#h-stroke-grad)" stroke-width="2.2" stroke-linecap="round"/>
      <path d="M9.5 35.5C14 32.5 19 33 24 36C29 33 34 32.5 38.5 35.5" stroke="url(#h-stroke-grad)" stroke-width="3" stroke-linecap="round" stroke-linejoin="round"/>
      <path d="M12.5 38.2C16 36.2 19.8 36.8 24 39C28.2 36.8 32 36.2 35.5 38.2" stroke="url(#h-stroke-grad)" stroke-width="1.8" stroke-linecap="round" opacity="0.65"/>
      <path d="M15 24.5H33" stroke="url(#h-stroke-grad)" stroke-width="2.6" stroke-linecap="round"/>
      <path d="M13.5 29.5H34.5" stroke="url(#h-stroke-grad)" stroke-width="2.6" stroke-linecap="round"/>
      <circle cx="24" cy="24.5" r="2.2" fill="#4ade80"/>
      <path d="M24 6L26.5 8.5L24 11L21.5 8.5Z" fill="#ffffff"/>
    </g>
  </g>

  <!-- Wordmark Text (Murni Akunio, Tanpa Tagline AI) -->
  <text x="56" y="32.5" font-family="'Fraunces', Georgia, serif" font-size="28" font-weight="700" fill="#232a33" letter-spacing="-0.03em">
    Akunio
  </text>
</svg>
